<svg width="26" height="26" viewBox="0 0 26 26" fill="none" xmlns="http://www.w3.org/2000/svg">
<path fill-rule="evenodd" clip-rule="evenodd" d="M7 0C3.13401 0 0 3.13401 0 7V18.4545C0 22.3205 3.13401 25.4545 7 25.4545H18.4545C22.3205 25.4545 25.4545 22.3205 25.4545 18.4545V7C25.4545 3.13401 22.3205 0 18.4545 0H7ZM15.087 4.24243L17.6309 4.24662C17.8515 4.24704 18.0303 4.4309 18.0303 4.65753V7.73383C18.0303 7.96066 17.8513 8.14473 17.6305 8.14473L15.9168 8.14536C14.7353 8.14536 14.5192 8.61831 14.5192 9.54996V11.4883H17.5109C17.617 11.4883 17.719 11.5317 17.7939 11.6089C17.8688 11.686 17.9111 11.7904 17.9111 11.8994L17.9098 15.2124C17.9098 15.4395 17.7309 15.6233 17.5098 15.6233H14.5192V23.983C14.5192 24.2099 14.3402 24.3939 14.1192 24.3939H10.782C10.561 24.3939 10.382 24.2101 10.382 23.983V15.6233H7.8242C7.60338 15.6233 7.42419 15.4395 7.42419 15.2124V11.8994C7.42419 11.6724 7.60318 11.4883 7.8242 11.4883H10.382V9.20175C10.382 6.18897 12.229 4.24243 15.087 4.24243Z" fill="white"/>
</svg>
