<svg width="25" height="25" viewBox="0 0 25 25" fill="none" xmlns="http://www.w3.org/2000/svg">
<path d="M12.4573 24.0547C9.17728 24.0547 8.79061 24.0374 7.51061 23.9814C6.51244 23.9486 5.52719 23.7456 4.59728 23.3814C2.98836 22.7552 1.71613 21.4825 1.09061 19.8734C0.74035 18.9401 0.551433 17.954 0.531942 16.9574C0.457275 15.68 0.457275 15.2614 0.457275 12.0067C0.457275 8.71738 0.474609 8.33338 0.531942 7.06005C0.551859 6.06474 0.74077 5.08006 1.09061 4.14805C1.71545 2.53675 2.98974 1.26294 4.60128 0.638714C5.5328 0.286984 6.51774 0.0975729 7.51328 0.0787139C8.78661 0.00671387 9.20528 0.00671387 12.4573 0.00671387C15.7639 0.00671387 16.1439 0.0240472 17.4039 0.0787139C18.4021 0.097736 19.3896 0.287127 20.3239 0.638714C21.935 1.26365 23.2091 2.53721 23.8346 4.14805C24.1908 5.09364 24.3807 6.09372 24.3959 7.10405C24.4706 8.38138 24.4706 8.79871 24.4706 12.052C24.4706 15.3054 24.4519 15.732 24.3959 16.9947C24.3761 17.9923 24.1867 18.9793 23.8359 19.9134C23.2088 21.5237 21.9347 22.7968 20.3239 23.4227C19.3909 23.7723 18.4054 23.9612 17.4093 23.9814C16.1359 24.0547 15.7186 24.0547 12.4573 24.0547ZM12.4119 2.11738C9.15061 2.11738 8.81194 2.13338 7.53861 2.19071C6.77859 2.20078 6.02591 2.34104 5.31328 2.60538C4.26095 3.00806 3.42824 3.83737 3.02128 4.88805C2.75489 5.60844 2.61462 6.36935 2.60661 7.13738C2.53594 8.42938 2.53594 8.76805 2.53594 12.0067C2.53594 15.2067 2.54794 15.5947 2.60661 16.8787C2.61854 17.639 2.75874 18.3918 3.02128 19.1054C3.42884 20.1554 4.2614 20.9841 5.31328 21.3867C6.02543 21.6528 6.77841 21.7931 7.53861 21.8014C8.82928 21.876 9.16928 21.876 12.4119 21.876C15.6826 21.876 16.0213 21.86 17.2839 21.8014C18.0445 21.7921 18.7977 21.6519 19.5106 21.3867C20.5566 20.9806 21.3838 20.1538 21.7906 19.108C22.0565 18.387 22.1967 17.6258 22.2053 16.8574H22.2199C22.2773 15.5827 22.2773 15.2427 22.2773 11.9854C22.2773 8.72805 22.2626 8.38538 22.2053 7.11205C22.1933 6.35265 22.0531 5.60073 21.7906 4.88805C21.3848 3.84081 20.5574 3.01244 19.5106 2.60538C18.7979 2.3397 18.0445 2.19941 17.2839 2.19071C15.9946 2.11738 15.6573 2.11738 12.4119 2.11738ZM12.4573 18.1654C9.96393 18.167 7.71517 16.6664 6.75976 14.3633C5.80435 12.0603 6.33048 9.40849 8.09278 7.64466C9.85508 5.88084 12.5064 5.35241 14.8103 6.30582C17.1142 7.25924 18.6167 9.5067 18.6173 12C18.6136 15.4015 15.8587 18.1588 12.4573 18.1654ZM12.4573 7.99738C10.2481 7.99738 8.45728 9.78824 8.45728 11.9974C8.45728 14.2065 10.2481 15.9974 12.4573 15.9974C14.6664 15.9974 16.4573 14.2065 16.4573 11.9974C16.4521 9.79037 14.6643 8.00251 12.4573 7.99738ZM18.8573 7.04672C18.0645 7.04377 17.4238 6.3995 17.4253 5.60673C17.4268 4.81395 18.0698 4.17206 18.8626 4.17206C19.6554 4.17206 20.2985 4.81394 20.2999 5.60671C20.3003 5.9892 20.1483 6.35608 19.8776 6.62628C19.6069 6.89649 19.2398 7.04778 18.8573 7.04672Z" fill="white"/>
</svg>
