<svg width="230" height="51" viewBox="0 0 230 51" fill="none" xmlns="http://www.w3.org/2000/svg">
<path d="M46.4294 42.3675L44.6965 46.0368H48.1536L46.4294 42.3675ZM46.5573 40.2145L51.2734 50.3473H50.1816L48.5911 47.0138H44.2327L42.6568 50.3473H41.5287L46.3087 40.2145H46.5559H46.5573Z" fill="#FEFEFE"/>
<path d="M65.1382 41.9156L64.3546 42.66C63.7905 42.1032 63.1726 41.6816 62.501 41.3952C61.8308 41.1088 61.1752 40.9649 60.5384 40.9649C59.7461 40.9649 58.9901 41.1611 58.2734 41.5507C57.5553 41.9403 56.9999 42.471 56.6045 43.1383C56.2091 43.807 56.0128 44.5121 56.0128 45.2564C56.0128 46.0196 56.2163 46.7451 56.6234 47.4313C57.0319 48.1174 57.596 48.6568 58.3156 49.0493C59.0352 49.4433 59.8231 49.6381 60.6823 49.6381C61.7218 49.6381 62.6028 49.3444 63.3238 48.7571C64.0435 48.1683 64.4694 47.4065 64.6017 46.4689H61.3758V45.4905H65.7371C65.7269 47.0562 65.2632 48.2992 64.3429 49.2209C63.4242 50.1411 62.1943 50.6005 60.6547 50.6005C58.7837 50.6005 57.3023 49.9637 56.2105 48.6859C55.3717 47.7031 54.9515 46.5677 54.9515 45.2768C54.9515 44.3158 55.1929 43.4232 55.6741 42.596C56.1553 41.7688 56.8153 41.1233 57.6556 40.6567C58.4944 40.19 59.4423 39.9574 60.5021 39.9574C61.3598 39.9574 62.1652 40.1115 62.9241 40.4226C63.68 40.7323 64.4185 41.2294 65.1367 41.9142L65.1382 41.9156Z" fill="#FEFEFE"/>
<path d="M71.2627 41.2059V44.6514L73.0058 44.6659C73.6803 44.6659 74.179 44.602 74.5046 44.474C74.8273 44.3446 75.0803 44.1382 75.262 43.8576C75.4423 43.5741 75.5339 43.2587 75.5339 42.9098C75.5339 42.5696 75.4408 42.2599 75.2577 41.9837C75.0745 41.706 74.8332 41.5069 74.5351 41.3862C74.2357 41.267 73.7399 41.2074 73.0465 41.2074H71.2627V41.2059ZM70.2509 40.2145H72.2658C73.391 40.2145 74.1513 40.261 74.5497 40.3526C75.1501 40.4907 75.6386 40.7858 76.0151 41.2394C76.3916 41.6915 76.5791 42.2498 76.5791 42.9127C76.5791 43.4651 76.4498 43.9492 76.191 44.3679C75.9308 44.7866 75.5615 45.1021 75.0788 45.3158C74.5976 45.5295 73.9333 45.64 73.0857 45.6443L76.7245 50.3488H75.4743L71.8355 45.6443H71.2641V50.3488H70.2523V40.2145H70.2509Z" fill="#FEFEFE"/>
<path d="M86.142 40.9456C85.3933 40.9456 84.6838 41.139 84.0136 41.53C83.342 41.9211 82.8201 42.4474 82.4421 43.1088C82.0656 43.7703 81.878 44.5088 81.878 45.3229C81.878 46.5267 82.2938 47.5443 83.1268 48.3744C83.9613 49.2045 84.9644 49.6189 86.1405 49.6189C86.9255 49.6189 87.651 49.4284 88.3197 49.0461C88.9899 48.6652 89.5104 48.1433 89.884 47.4818C90.2591 46.8203 90.4451 46.0847 90.4451 45.275C90.4451 44.471 90.2591 43.7441 89.884 43.0943C89.5104 42.443 88.9826 41.9226 88.3037 41.5315C87.6234 41.1404 86.9037 40.9471 86.1405 40.9471L86.142 40.9456ZM86.0969 39.96C87.6292 39.96 88.9114 40.4717 89.9436 41.4966C90.9772 42.5215 91.4933 43.7819 91.4933 45.2793C91.4933 46.7636 90.9787 48.0211 89.9465 49.0548C88.9172 50.0884 87.6612 50.6045 86.1798 50.6045C84.6795 50.6045 83.4118 50.0899 82.381 49.0621C81.3488 48.0342 80.8328 46.7883 80.8328 45.3288C80.8328 44.3533 81.0683 43.4519 81.5378 42.6204C82.0089 41.7888 82.65 41.1375 83.4612 40.6679C84.2739 40.1984 85.1519 39.9614 86.0969 39.9614V39.96Z" fill="#FEFEFE"/>
<path d="M96.0643 50.3473V40.2145H96.2838L103.016 47.982V40.2145H104.012V50.3473H103.787L97.1081 42.6743V50.3473H96.0643Z" fill="#FEFEFE"/>
<path d="M109.017 40.2145H114.815V41.2059H110.028V44.3824H114.774V45.3739H110.028V49.3558H114.774V50.3473H109.017V40.2145Z" fill="#FEFEFE"/>
<path d="M128.855 41.9156L128.072 42.66C127.508 42.1032 126.89 41.6816 126.22 41.3952C125.548 41.1088 124.894 40.9649 124.256 40.9649C123.463 40.9649 122.707 41.1611 121.991 41.5507C121.273 41.9403 120.717 42.471 120.323 43.1383C119.929 43.807 119.732 44.5121 119.732 45.2564C119.732 46.0196 119.937 46.7451 120.344 47.4313C120.752 48.1174 121.315 48.6568 122.034 49.0493C122.754 49.4433 123.543 49.6381 124.401 49.6381C125.442 49.6381 126.322 49.3444 127.043 48.7571C127.762 48.1683 128.188 47.4065 128.32 46.4689H125.096V45.4905H129.456C129.447 47.0562 128.982 48.2992 128.062 49.2209C127.144 50.1411 125.913 50.6005 124.373 50.6005C122.502 50.6005 121.021 49.9637 119.929 48.6859C119.09 47.7031 118.672 46.5677 118.672 45.2768C118.672 44.3158 118.912 43.4232 119.391 42.596C119.873 41.7688 120.534 41.1233 121.373 40.6567C122.212 40.19 123.161 39.9574 124.219 39.9574C125.077 39.9574 125.882 40.1115 126.638 40.4226C127.396 40.7323 128.134 41.2294 128.854 41.9142L128.855 41.9156Z" fill="#FEFEFE"/>
<path d="M139.279 37.2938H140.758L138.729 39.4149H137.779L139.279 37.2938ZM138.777 40.9457C138.027 40.9457 137.319 41.1391 136.649 41.5301C135.979 41.9212 135.454 42.4475 135.079 43.1089C134.701 43.7704 134.514 44.5089 134.514 45.323C134.514 46.5282 134.931 47.5444 135.764 48.3745C136.598 49.2046 137.603 49.619 138.779 49.619C139.562 49.619 140.289 49.4285 140.958 49.0462C141.627 48.6653 142.147 48.1434 142.522 47.4819C142.896 46.8204 143.084 46.0848 143.084 45.2751C143.084 44.4711 142.896 43.7442 142.522 43.0944C142.147 42.4431 141.621 41.9227 140.941 41.5316C140.26 41.1405 139.542 40.9472 138.779 40.9472L138.777 40.9457ZM138.732 39.9601C140.265 39.9601 141.545 40.4718 142.579 41.4952C143.611 42.5202 144.127 43.7806 144.127 45.278C144.127 46.7608 143.613 48.0198 142.583 49.0534C141.551 50.0871 140.297 50.6032 138.815 50.6032C137.315 50.6032 136.049 50.0885 135.017 49.0593C133.984 48.03 133.468 46.7855 133.468 45.3259C133.468 44.3505 133.704 43.4491 134.173 42.6176C134.643 41.786 135.285 41.1362 136.098 40.6651C136.909 40.1956 137.787 39.9586 138.732 39.9586V39.9601Z" fill="#FEFEFE"/>
<path d="M158.113 42.0943L157.315 42.7078C156.875 42.135 156.347 41.6974 155.73 41.4009C155.114 41.1058 154.437 40.9575 153.698 40.9575C152.891 40.9575 152.144 41.1508 151.455 41.539C150.769 41.9272 150.237 42.4476 149.857 43.1033C149.479 43.7575 149.29 44.4945 149.29 45.3115C149.29 46.5473 149.712 47.5794 150.558 48.4052C151.404 49.2324 152.471 49.6453 153.761 49.6453C155.177 49.6453 156.361 49.0885 157.317 47.9778L158.115 48.5855C157.61 49.228 156.982 49.7252 156.226 50.0756C155.472 50.4274 154.63 50.6033 153.698 50.6033C151.929 50.6033 150.533 50.0131 149.51 48.8326C148.652 47.8367 148.225 46.633 148.225 45.2229C148.225 43.74 148.745 42.4912 149.782 41.4779C150.82 40.4646 152.122 39.9587 153.685 39.9587C154.63 39.9587 155.483 40.1463 156.244 40.5199C157.005 40.895 157.629 41.4198 158.115 42.0943H158.113Z" fill="#FEFEFE"/>
<path d="M162.532 40.2145H163.544V50.3473H162.532V40.2145Z" fill="#FEFEFE"/>
<path d="M173.258 40.9456C172.51 40.9456 171.8 41.139 171.129 41.53C170.458 41.9211 169.936 42.4474 169.558 43.1088C169.182 43.7703 168.994 44.5088 168.994 45.3229C168.994 46.5267 169.41 47.5443 170.243 48.3744C171.078 49.2045 172.081 49.6189 173.257 49.6189C174.042 49.6189 174.769 49.4284 175.436 49.0461C176.105 48.6652 176.627 48.1433 177 47.4818C177.375 46.8203 177.561 46.0847 177.561 45.275C177.561 44.471 177.375 43.7441 177 43.0943C176.627 42.443 176.099 41.9226 175.42 41.5315C174.74 41.1404 174.019 40.9471 173.257 40.9471L173.258 40.9456ZM173.213 39.96C174.746 39.96 176.028 40.4717 177.06 41.4966C178.092 42.5215 178.61 43.7819 178.61 45.2793C178.61 46.7636 178.095 48.0211 177.063 49.0548C176.034 50.0884 174.777 50.6045 173.296 50.6045C171.796 50.6045 170.528 50.0899 169.497 49.0621C168.465 48.0342 167.949 46.7883 167.949 45.3288C167.949 44.3533 168.185 43.4519 168.654 42.6204C169.125 41.7888 169.765 41.1375 170.578 40.6679C171.39 40.1984 172.268 39.9614 173.213 39.9614V39.96Z" fill="#FEFEFE"/>
<path d="M182.128 48.4605L182.989 47.9444C183.593 49.0609 184.293 49.6177 185.085 49.6177C185.424 49.6177 185.742 49.5392 186.041 49.3793C186.34 49.2209 186.566 49.0086 186.722 48.7426C186.877 48.4765 186.956 48.193 186.956 47.895C186.956 47.5563 186.841 47.2219 186.611 46.8963C186.297 46.4471 185.719 45.9033 184.88 45.2709C184.035 44.6327 183.51 44.1704 183.305 43.8855C182.948 43.4072 182.769 42.8911 182.769 42.3358C182.769 41.8938 182.875 41.4926 183.086 41.1291C183.297 40.7657 183.593 40.4807 183.976 40.2714C184.358 40.0621 184.775 39.9574 185.224 39.9574C185.701 39.9574 186.148 40.0751 186.56 40.3121C186.976 40.5491 187.417 40.9838 187.879 41.6176L187.053 42.2442C186.672 41.7383 186.348 41.4054 186.079 41.2454C185.812 41.0855 185.52 41.0041 185.203 41.0041C184.794 41.0041 184.461 41.1277 184.201 41.3763C183.942 41.6249 183.813 41.9287 183.813 42.2936C183.813 42.5146 183.859 42.7283 183.951 42.9347C184.043 43.1412 184.21 43.3651 184.454 43.6093C184.586 43.7387 185.022 44.0759 185.761 44.6226C186.638 45.2695 187.238 45.8452 187.562 46.3511C187.888 46.857 188.049 47.3644 188.049 47.8747C188.049 48.6088 187.771 49.2485 187.215 49.7893C186.658 50.3316 185.98 50.602 185.182 50.602C184.569 50.602 184.011 50.4377 183.512 50.1091C183.012 49.7806 182.551 49.231 182.129 48.4591L182.128 48.4605Z" fill="#FEFEFE"/>
<path d="M169.599 6.21943C167.781 8.81152 166.869 12.5259 166.869 17.3612C166.869 21.9493 167.896 25.53 169.948 28.1002C171.499 30.009 173.573 31.2898 176.173 31.9455C177.36 32.2435 178.969 32.3932 180.998 32.3932H195.359V13.9535H180.19V19.3718H188.828V26.8442H181.446C178.703 26.8442 176.734 25.876 175.539 23.9381C174.528 22.2924 174.02 19.8312 174.02 16.5529C174.02 13.2688 174.618 10.7625 175.811 9.03831C176.976 7.30541 178.854 6.4375 181.445 6.4375H195.359V1.16174H181.445C175.899 1.16174 171.949 2.84812 169.598 6.22089L169.599 6.21943Z" fill="#FDB92E"/>
<path d="M3.29292 5.8589C1.26926 8.51059 0.255981 12.3442 0.255981 17.3626C0.255981 22.5192 1.59636 26.3659 4.27568 28.8998C6.72093 31.2302 10.1824 32.3947 14.66 32.3947H27.792V27.1189H14.9231C11.7045 27.1189 9.50055 26.078 8.30555 23.9933C7.56267 22.7111 7.19195 20.8154 7.19195 18.3091C7.19195 17.9151 7.20649 17.4063 7.23557 16.7782C7.23557 13.6163 7.69932 11.2146 8.62247 9.57475C9.84655 7.42607 11.9473 6.35028 14.9246 6.35028H27.7934V1.16174H14.8374C9.52963 1.16174 5.68293 2.72746 3.29583 5.8589H3.29292Z" fill="#FDB92E"/>
<path d="M41.5316 19.4154L46.1822 7.06117L50.923 19.4154H41.5316ZM43.0057 1.16174L30.0322 32.3932H36.6934L39.4236 24.8787H53.0281L55.9342 32.3932H62.9559L49.7643 1.16174H43.0057Z" fill="#FDB92E"/>
<path d="M82.7712 25.4573L74.8496 1.16174H65.3695V32.3932H71.234V7.82586L79.5482 32.3932H86.3533L94.4073 8.05411V32.3932H100.128V1.16174H90.7888L82.7712 25.4573Z" fill="#FDB92E"/>
<path d="M114.084 19.4154L118.735 7.06117L123.475 19.4154H114.084ZM115.558 1.16174L102.585 32.3932H109.246L111.976 24.8787H125.582L128.488 32.3932H135.51L122.317 1.16174H115.558Z" fill="#FDB92E"/>
<path d="M156.52 14.2268C155.806 14.5554 154.408 14.7182 152.32 14.7182H144.321V6.66719H152.275C154.363 6.66719 155.883 6.94922 156.836 7.51474C157.789 8.08026 158.265 9.12262 158.265 10.6433C158.265 12.4939 157.683 13.6889 156.519 14.2268H156.52ZM163.276 16.1487C164.202 14.7429 164.664 12.8792 164.664 10.556C164.664 7.12513 163.71 4.66388 161.803 3.17086C160.105 1.83047 157.468 1.16028 153.887 1.16028H137.92V32.3932H144.276V20.1364H152.045L158.933 32.3932H166.009L158.484 19.2845C160.636 18.7743 162.232 17.729 163.276 16.1487Z" fill="#FDB92E"/>
<path d="M220.598 24.8322C219.229 26.8588 216.98 27.8706 213.85 27.8706C210.268 27.8706 207.837 26.6465 206.556 24.1983C205.717 22.6181 205.3 20.1118 205.3 16.6794C205.3 13.0653 206.059 10.338 207.581 8.49173C209.104 6.67015 211.192 5.76009 213.85 5.76009C216.529 5.76009 218.555 6.50297 219.932 7.98873C221.572 9.78269 222.389 12.7222 222.389 16.8088C222.389 20.3938 221.793 23.0688 220.6 24.8322H220.598ZM228.427 9.29859C227.589 6.5902 226.144 4.51711 224.091 3.08223C221.645 1.37841 218.214 0.526489 213.8 0.526489C211.026 0.526489 208.668 0.872489 206.732 1.56303C204.133 2.48909 202.163 4.00684 200.822 6.11918C199.212 8.68945 198.408 12.2105 198.408 16.6823C198.408 21.3649 199.392 25.0648 201.357 27.7805C202.91 29.9291 205.044 31.4222 207.76 32.261C209.485 32.7916 211.528 33.0577 213.887 33.0577C218.419 33.0577 221.982 31.9397 224.581 29.7038C227.742 26.9881 229.322 22.6762 229.322 16.7681C229.322 13.7617 229.024 11.2714 228.425 9.29568L228.427 9.29859Z" fill="#FDB92E"/>
</svg>
