<svg width="49" height="50" viewBox="0 0 49 50" fill="none" xmlns="http://www.w3.org/2000/svg">
<path d="M40.5869 13.8879C42.4066 12.7751 43.7681 11.0228 44.4173 8.95822C42.7074 9.99608 40.8367 10.7272 38.8859 11.1199C36.1813 8.19307 31.8961 7.48082 28.4249 9.38112C24.9536 11.2814 23.1556 15.3238 24.0355 19.2496C17.0317 18.8899 10.5065 15.5054 6.08351 9.93835C3.77525 14.0113 4.95482 19.218 8.77916 21.8369C7.39624 21.7915 6.04399 21.4084 4.83516 20.7198C4.83516 20.7571 4.83516 20.7945 4.83516 20.8319C4.83596 25.0746 7.7589 28.7291 11.8239 29.57C10.5412 29.927 9.1957 29.9796 7.89008 29.7236C9.03329 33.3519 12.3021 35.8376 16.0278 35.9117C12.942 38.3893 9.13129 39.7329 5.20865 39.7264C4.51337 39.7274 3.81863 39.6865 3.12805 39.6038C7.11141 42.2224 11.7476 43.6123 16.4824 43.6074C23.0698 43.6537 29.4005 40.997 34.0584 36.2316C38.7163 31.4661 41.3127 24.9896 41.2669 18.2507C41.2669 17.8645 41.2581 17.4804 41.2405 17.0983C42.9465 15.837 44.4189 14.2745 45.5885 12.4842C43.9991 13.2049 42.3133 13.678 40.5869 13.8879Z" fill="white"/>
</svg>
