<svg width="97" height="111" viewBox="0 0 97 111" fill="none" xmlns="http://www.w3.org/2000/svg">
<path fill-rule="evenodd" clip-rule="evenodd" d="M96.2693 62.7916C90.9663 76.9691 78.1715 87.2451 52.847 85.3797C51.5972 88.8133 49.2207 92.3798 47.8342 93.6586C46.5453 94.844 46.045 95.1742 44.9824 95.6952C44.5218 95.9224 44.0566 96.0717 43.5186 96.0048C42.9321 95.9304 42.341 96.0342 41.7959 96.2692C41.0086 96.612 40.1976 96.9261 39.4734 97.3759C38.3471 98.0753 37.2315 98.8164 36.2072 99.656C34.7524 100.847 33.123 101.644 31.3292 102.122C30.4629 102.351 29.569 102.479 28.6905 102.666C28.3505 102.738 27.9795 102.782 27.6938 102.959C27.3701 103.158 27.1186 103.482 26.8525 103.769C26.5969 104.043 26.2478 104.248 26.1016 104.676C61.861 121.156 90.9128 98.9272 96.2985 78.4041C96.4299 77.9035 96.2203 78.0472 96.0314 78.3277C90.1325 87.1155 82.3871 94.2281 69.7627 94.6513C69.6252 94.6558 69.5923 94.5488 69.7486 94.5043C88.0125 89.3423 96.4822 74.6498 96.6908 62.8233C96.6943 62.619 96.6199 62.4966 96.5239 62.4966C96.4422 62.4966 96.3455 62.5863 96.2691 62.7914L96.2693 62.7916Z" fill="url(#paint0_linear_446_381)"/>
<path fill-rule="evenodd" clip-rule="evenodd" d="M60.1012 0.120123C58.1425 0.615441 56.1384 1.5533 54.3818 2.75981C52.0662 4.35106 50.1581 6.34992 48.5322 8.62899C48.2854 8.97528 48.0344 9.3168 47.8089 9.62842C45.3663 9.65782 43.0385 9.95235 40.7378 10.4175C32.094 12.1678 24.396 15.8939 17.6659 21.598C9.22012 29.1961 -1.14839 40.5301 0.103351 63.8397C1.15053 83.3124 12.8866 96.351 22.559 102.658C23.427 102.133 24.2123 101.618 25.0361 101.173C26.0167 100.641 26.8166 99.9348 27.4936 99.049C28.9901 97.0921 30.5248 95.1641 32.0306 93.2148C32.3709 92.6921 32.5561 92.4201 32.1 92.2907C31.5454 92.1319 29.4389 91.4157 28.6021 91.0935C27.9781 90.854 27.6044 90.4032 27.4207 89.741C26.8759 87.7705 26.3743 85.5935 26.6585 83.3293C25.487 82.3218 24.2008 81.4435 22.7327 80.87C21.9732 80.5418 21.255 80.536 20.4617 80.6597C20.3159 82.3575 20.7092 83.8165 21.7619 85.015C21.6574 85.7365 21.1183 86.2416 21.1148 86.902C21.6242 87.2222 22.1097 87.4815 22.5427 87.809C23.8955 88.8386 24.5212 90.2117 24.3046 91.9085C24.1767 92.9248 23.8404 93.8877 23.2589 94.7449C22.8862 95.2958 22.4985 95.8338 22.0981 96.3653C21.9961 96.5013 21.824 96.5855 21.6312 96.7355C21.2213 95.2526 20.8361 93.8656 20.4491 92.4767C20.0543 92.3666 19.7108 92.2973 19.3851 92.1794C18.4743 91.8447 17.8647 91.2234 17.6968 90.2479C17.6259 89.8272 17.6126 89.3932 17.6151 88.9655C17.6169 87.5951 17.5717 86.2283 17.2922 84.8793C17.0208 83.563 16.6142 82.316 15.5979 81.3442C15.1114 80.8808 14.8121 80.2737 14.5832 79.6434C14.1758 78.512 14.2542 77.4096 14.8601 76.3667C15.5293 75.2154 16.4878 74.319 17.7049 73.8355C19.7593 73.0216 21.925 72.5725 24.135 72.8522C25.1399 72.9783 26.1851 72.6285 26.7915 72.3189C27.3986 72.0118 28.0226 71.5992 28.3561 71.1411C29.2517 69.9039 30.1278 68.6517 30.8005 67.2813C31.2451 66.3716 31.6338 65.4275 31.9595 64.4695C32.2221 63.6975 32.398 62.887 32.2417 62.0997C31.6399 61.5885 31.0578 61.1307 30.519 60.6281C29.9421 60.0893 29.9607 59.2959 29.8018 58.5875C29.5214 58.5282 29.2934 58.4875 29.068 58.4322C27.9638 58.1643 26.8784 57.8366 25.8835 57.2722C25.0881 56.8206 24.3621 56.274 23.9955 55.4113C23.8002 54.9506 23.4808 54.7828 23.0478 54.6463C21.6614 54.206 20.2395 53.9291 18.7938 53.8534C17.9373 53.8065 17.1972 53.5305 16.4835 53.1063C15.3911 52.4575 14.4839 51.6081 13.7358 50.5858C13.5981 50.3985 13.4325 50.2023 13.3835 49.9849C13.1136 48.7957 12.9547 47.5955 13.3284 46.393C13.592 45.5479 14.1105 44.9606 14.9998 44.7548C15.1906 44.7103 15.3833 44.6713 15.5715 44.6206C16.8539 44.269 18.1313 43.8875 19.3054 43.251C21.5553 42.0327 23.2994 40.0464 24.1143 38.8009C21.2811 37.2654 17.9494 35.6146 17.1462 32.1434C16.4707 29.2315 16.8738 26.5059 18.5829 24.0519C19.0295 23.4111 19.1946 23.5541 19.1602 24.1432C19.0943 25.2597 18.9639 26.2707 19.0189 27.333C19.1564 29.9387 20.2053 32.2205 22.6143 33.4979C24.4187 34.4536 25.4784 34.861 27.4753 35.5453C28.235 35.8054 28.7979 35.9589 29.5636 35.6526C31.5667 34.8519 33.5975 34.7961 35.5944 35.7441C35.6883 35.7865 35.8047 35.7795 36.0196 35.8139C35.7338 35.4164 35.5102 35.104 35.2847 34.7924C34.5703 33.8038 33.981 32.7483 33.6126 31.5812C32.8371 29.1245 33.3223 26.9527 35.1028 25.0818C35.4509 24.7151 35.6343 24.7038 35.6017 25.2037C35.5368 26.185 35.5049 27.3051 35.6077 28.166C35.8597 30.2973 36.8672 32.4068 38.4763 33.1632C40.0826 33.9201 42.0282 35.0447 43 35.9617C43.9746 36.8777 44.5453 37.9995 44.3058 39.3839C44.6981 39.5624 45.0459 39.7275 45.4017 39.88C47.39 40.7357 49.2235 41.8477 50.8974 43.2163C53.0162 44.9488 54.7539 46.9936 55.8818 49.5019C56.1615 50.1249 56.5643 50.5084 57.1609 50.7783C58.0865 51.1972 59.0281 51.5983 59.9034 52.1087C64.3738 54.7162 68.5985 57.6707 72.4017 61.197C74.3588 63.0119 76.1383 64.9824 77.4828 67.3097C77.5396 67.409 77.6321 67.4874 77.7306 67.6017C78.0171 67.647 78.3216 67.7115 78.6322 67.7437C80.1162 67.8973 81.5948 67.9106 83.0725 67.6392C83.9247 67.4829 84.5725 67.127 85.0457 66.3485C85.9801 64.8087 86.8908 63.2607 87.6098 61.6074C88.1574 60.3496 88.5941 59.0539 88.801 57.6923C89.0229 56.2197 88.9045 54.8051 88.0091 53.5393C87.8731 53.3486 87.7704 53.1365 87.6565 52.9297C85.0374 48.2125 82.5425 43.4302 80.2687 38.5353C79.0803 35.9838 77.9613 33.4019 77.0568 30.7321C76.5919 29.361 76.2092 27.9703 76.028 26.527C75.9606 25.9857 75.8807 25.4406 75.7327 24.9187C75.0554 22.5303 74.0259 20.3018 72.6155 18.2569C71.3339 16.4045 69.817 14.7678 67.8895 13.5892C67.0178 13.0549 66.3088 12.4895 65.9012 11.0634C65.4939 9.63721 65.574 6.17401 66.669 4.26461C66.8049 4.05879 66.6556 3.97536 66.4702 4.09071C63.6938 5.80635 62.186 6.83217 60.3175 9.19592C64.7847 11.9258 65.476 16.3211 65.476 16.3211C65.476 16.3211 62.2694 11.7562 57.5607 10.6753C57.5351 10.5608 57.4987 10.4846 57.5039 10.4102C57.4082 7.34458 57.6841 3.46346 60.5651 0.60187C60.8483 0.320662 61.2041 0 60.7968 0C60.6608 0 60.4392 0.0354337 60.1009 0.120877L60.1012 0.120123Z" fill="url(#paint1_linear_446_381)"/>
<defs>
<linearGradient id="paint0_linear_446_381" x1="61.3962" y1="62.4966" x2="61.3962" y2="110.413" gradientUnits="userSpaceOnUse">
<stop stop-color="#FDB813"/>
<stop offset="0.578125" stop-color="#EDB737"/>
<stop offset="0.953125" stop-color="#E1D3B0"/>
</linearGradient>
<linearGradient id="paint1_linear_446_381" x1="44.4489" y1="0" x2="44.4489" y2="102.658" gradientUnits="userSpaceOnUse">
<stop stop-color="#FDB813"/>
<stop offset="0.578125" stop-color="#EDB737"/>
<stop offset="0.953125" stop-color="#E1D3B0"/>
</linearGradient>
</defs>
</svg>
