<svg width="26" height="26" viewBox="0 0 33 32" fill="none" xmlns="http://www.w3.org/2000/svg">
<path d="M16.4627 25.3493H16.436C16.3533 25.3493 8.08268 25.3333 5.99601 24.7666C4.84857 24.4575 3.95248 23.5609 3.64401 22.4133C3.26878 20.2964 3.08758 18.1498 3.10268 16C3.09298 13.8466 3.27908 11.6969 3.65868 9.57729C3.97562 8.42864 4.86778 7.52789 6.01334 7.19996C8.04268 6.66663 16.0853 6.66663 16.4267 6.66663H16.4547C16.5387 6.66663 24.8307 6.68263 26.896 7.24929C28.041 7.55997 28.9353 8.45476 29.2453 9.59996C29.6325 11.7247 29.8142 13.8817 29.788 16.0413C29.7974 18.192 29.6108 20.3391 29.2307 22.456C28.9182 23.6021 28.0216 24.4968 26.8747 24.8066C24.848 25.344 16.804 25.3493 16.4627 25.3493ZM13.796 12.0066L13.7893 20.0066L20.7387 16.0066L13.796 12.0066Z" fill="white"/>
</svg>